<?xml version="1.0" encoding="utf-8"?>
<!-- Generator: Adobe Illustrator 26.5.0, SVG Export Plug-In . SVG Version: 6.00 Build 0)  -->
<svg version="1.1" id="Layer_1" xmlns="http://www.w3.org/2000/svg" xmlns:xlink="http://www.w3.org/1999/xlink" x="0px" y="0px"
	 viewBox="0 0 512 512" style="enable-background:new 0 0 512 512;" xml:space="preserve">
<style type="text/css">
	.st0{fill:#006C35;}
	.st1{fill:#FFFFFF;}
</style>
<g id="XMLID_1_">
	<path id="XMLID_6_" class="st0" d="M116.65,45.71l-27.64,5.47L72.87,58.9l0.28,0.28l-4.07,2.1l13.89,27.64l-16.14,14.59H53.79
		l-6.88,13.75l-34.52-1.54l-3.93,9.26l5.05,1.96l-5.05-0.42l-6.88,17.68l12.35,6.17l32.97,58.23l7.72,20.63l0.7,17.68h0.14
		l-0.14,0.84l33.82,25.68l7.02,22.59l0.7,47.57l46.86,47.57l3.93,16.14l37.6,59.35h2.39l4.49-3.37l3.09-20.63h6.17l9.96,6.17
		l36.06-3.79l42.23,2.24l4.63,7.72l6.17,1.54l8.42-5.33l0.28-6.59l0.56,5.05l17.68-27.64l26.94-8.42l67.63-10.66l76.05-29.89
		l13.05-55.98l-11.51-16.14l-63-3.09l-34.1-40.41l-11.51-4.63l-18.52-36.06l2.24-12.21l-26.1-30.73l-8.42-3.09l-9.96-24.55h-19.92
		l-1.54-11.51l-38.16-3.65l-30.87-4.77l-89.94-72.12L116.65,45.71z M87.18,74.62l1.68,1.82h-0.56L87.18,74.62z M143.03,136.49
		l0.56,0.56l8.42,0.14h-10.66L143.03,136.49z"/>
	<path id="XMLID_10_" class="st0" d="M116.65,45.71l-0.28-1.26l-27.78,5.33L70.91,58.2l0.28,0.28L67.4,60.3l13.89,27.92
		l-15.15,13.61H52.81l-6.88,13.75l-34.52-1.26l-4.63,11.08l6.17,2.39l0.42-1.12l0.14-1.26l-5.89-0.42l-7.58,19.5l12.91,6.45
		l32.83,57.81l7.58,20.49l0.84,19.22l1.82-0.7l-0.42-1.12l-1.26-0.28l-0.14,0.84l-0.14,0.7l34.1,25.96l6.74,22.03l0.7,47.85
		l47,47.71l3.79,16l38.02,60.05h3.51l5.33-3.93l2.95-20.2h4.77l10.1,6.17l36.34-3.93l41.53,2.25l4.49,7.58l7.16,1.82l9.4-6.03
		l0.28-7.3h-1.26l-1.26,0.14l0.84,8.56l19.36-30.17l26.38-8.28l67.63-10.8l76.75-30.17l13.33-57.11l-12.21-17.12l-63-3.09
		l-33.67-39.71l-11.37-4.49l-17.96-35.22l2.39-12.49l-26.66-31.43l-8.28-2.95l-10.1-24.84h-19.64L310,133.41l-39.15-3.79
		l-30.59-4.77l-89.8-71.98l-33.53-8.56h-0.28L116.65,45.71l-0.28,1.12l32.83,8.42l89.94,72.12l31.29,4.91l37.32,3.51l1.54,11.65
		h20.2l9.82,24.27l8.7,3.09l25.54,30.03l-2.25,12.07l18.8,36.9l11.65,4.63l33.96,39.99l62.86,3.09l10.8,15.15l-12.77,54.86
		l-75.35,29.61l-67.49,10.66l-27.36,8.56l-16,25.12l-0.14-1.54l-2.39,0.14l-0.28,6.03l-7.44,4.77l-5.19-1.26l-4.77-7.72l-42.94-2.39
		l-35.78,3.79l-9.96-6.03h-7.58l-3.09,21.19l-3.79,2.81h-1.26l-37.18-58.65l-3.93-16.28l-46.72-47.43l-0.7-47.29l-7.16-23.15
		L56.6,246.92v-0.14l0.42-2.25l-0.7,0.28l-0.7-16.14l-7.72-20.91l-33.25-58.65L3,143.37l6.17-15.71l4.07,0.28l0.56-2.39l-3.79-1.4
		l3.09-7.3l34.52,1.54l6.88-13.89h12.77l17.12-15.57L70.63,61.57l4.35-2.24l-0.14-0.28l14.59-6.88l27.5-5.33L116.65,45.71
		l-0.28,1.12L116.65,45.71z M87.18,74.62l-0.84,0.84l1.68,1.82l0.84-0.84v-1.26h-0.56v1.26l1.12-0.56l-1.12-1.82L87.18,74.62
		l-0.84,0.84L87.18,74.62l-1.12,0.56l1.4,2.39h1.26h2.81l-3.51-3.79l-1.96,1.4L87.18,74.62z M143.03,136.49l-0.84,0.84l0.56,0.56
		l0.42,0.42l8.98,0.14v-1.26v-1.26h-10.66v1.26l0.42,1.12l1.82-0.7L143.03,136.49l-0.84,0.84L143.03,136.49l-0.42-1.12l-1.82,0.7
		l0.42,2.39h10.66v-2.39l-7.86-0.14l-0.14-0.14l-0.56-0.56l-0.84,0.28L143.03,136.49z"/>
	<path id="XMLID_45_" class="st1" d="M194.52,148.42c-0.42,0-0.98,0.14-1.82,0.7c-1.82,1.26-5.61,5.05-5.75,9.54
		c-0.14,2.53-0.56,2.53,1.12,4.07c1.12,1.68,2.39,1.54,4.77,0.28c1.4-0.98,1.82-1.68,2.25-3.37c0.56-2.81-2.95,1.4-3.51-1.82
		c-0.84-2.95,1.54-4.21,3.65-7.02C195.36,149.54,195.51,148.56,194.52,148.42z M229.46,148.7c-0.7,0.14-1.54,0.98-2.67,2.95
		c-0.84,2.1-4.35,5.47-1.82,12.07c2.1,4.21,2.95,11.22,1.96,18.94c-1.4,2.24-1.82,2.95-3.65,5.19c-2.67,2.81-5.47,2.1-7.72,1.12
		c-2.1-1.4-3.65-2.1-4.63-6.45c0.14-7.02,0.56-18.52-0.7-20.91c-1.82-3.79-5.05-2.39-6.31-1.26c-6.45,5.89-9.54,15.71-11.51,23.57
		c-1.82,5.75-3.65,4.07-5.05,1.82c-3.23-3.09-3.51-26.66-7.3-22.73c-6.17,17.82,3.65,37.32,10.38,35.5c4.91,1.96,8-7.3,9.96-17.54
		c1.4-2.81,2.39-3.23,3.09-1.68c-0.14,13.61,0.98,16.7,4.49,20.77c7.86,6.03,14.31,0.7,14.73,0.28l6.03-6.03
		c1.4-1.4,3.09-1.54,5.05-0.28c1.82,1.68,1.68,4.63,5.61,6.59c3.37,1.4,10.52,0.28,12.07-2.53c2.25-3.79,2.81-5.19,3.79-6.59
		c1.54-2.1,4.35-1.12,4.35-0.56c-0.28,1.12-1.82,2.39-0.7,4.49c1.82,1.4,2.39,0.56,3.51,0.14c3.93-1.82,6.88-10.52,6.88-10.52
		c0.14-3.23-1.68-2.95-2.81-2.25c-1.54,0.98-1.54,1.26-3.09,2.1c-1.96,0.28-5.61,1.54-7.58-1.26c-1.96-3.51-1.96-8.28-3.37-11.79
		c0-0.28-2.53-5.47-0.14-5.75c1.12,0.28,3.79,0.84,4.07-1.26c1.26-2.1-2.67-8-5.33-10.94c-2.24-2.53-5.47-2.81-8.56-0.28
		c-2.1,1.96-1.82,4.21-2.24,6.31c-0.56,2.39-0.42,5.47,1.96,8.56c2.1,4.21,6.03,9.68,4.77,17.4c0,0-2.25,3.65-6.31,3.23
		c-1.68-0.42-4.35-1.12-5.89-11.79c-1.12-8.14,0.28-19.5-3.23-24.69C231.14,150.53,230.44,148.56,229.46,148.7z M218.38,149.54
		c-0.98,0.14-2.25,1.26-3.09,3.65c-0.84,1.82-1.82,11.08-1.68,11.08c-0.7,2.81,2.95,3.93,4.49,0.42c2.39-6.59,2.39-9.26,2.53-12.07
		C220.34,150.39,219.36,149.4,218.38,149.54z M259.07,150.24c-1.12,0.14-1.96,0.7-2.25,2.24c-0.42,3.65-0.14,5.75,0.42,8.84
		c0.42,2.1,3.51,5.47,4.91,7.44c7.02,9.54,13.89,18.94,20.35,28.9c0.98,7.3,1.82,14.45,2.24,21.61c1.12,15.57,1.4,35.08,0.42,51.49
		c2.95,0.14,7.58-4.77,9.26-11.79c1.12-9.82-0.42-29.89-0.42-35.64c0-2.39-0.28-5.33-0.42-8.28c7.58,12.49,15.01,25.68,22.31,40.13
		c2.67-1.26,2.1-16.14,0.56-18.24c-5.75-12.49-13.89-24.84-16.42-29.61c-0.98-1.68-4.07-6.45-7.86-12.07
		c-0.7-7.86-1.4-14.59-1.96-16.56c-1.26-8.28,3.37,0.98,2.81-3.93c-1.54-8.28-6.03-13.89-11.51-21.61
		c-1.68-2.53-1.68-2.95-4.35,0.56c-1.54,3.65-1.54,6.74-1.12,9.54c-0.7-0.98-1.54-2.24-2.81-3.79c-4.63-4.07-4.91-4.21-8.84-7.44
		C263.14,151.51,260.89,150.1,259.07,150.24z M68.38,151.79c-1.82,0-3.93,1.12-3.09,3.37c-0.42,1.26,3.65,5.33,4.35,7.58
		c0.7,1.54-0.7,6.74,0.7,7.3c1.26,0.56,2.95-3.51,3.51-7.44c0.42-2.1,0.14-9.26-4.77-10.66C68.94,151.93,68.66,151.79,68.38,151.79z
		 M332.73,152.35c-0.42,0-0.84,0.56-1.82,1.82c-2.39,7.86-3.23,14.31-2.39,19.22c6.17,32.27,12.49,61.6,11.51,92.33
		c2.95,0,6.31-6.73,7.72-13.33c0.84-9.12-0.56-14.73-0.7-20.06c-0.28-5.33-6.03-49.11-7.3-53.18c-1.4-7.72,5.75-0.98,4.91-5.47
		c-0.14-0.42-0.42-0.98-0.7-1.4l-3.79-1.4L332.73,152.35z M113,152.91c-0.7,0.14-1.54,0.7-1.82,1.82c-0.14,0.7,0.28,1.82-0.28,2.1
		c-0.42,0.42-1.68,0.14-1.68-1.82c0-0.56-0.42-1.26-0.7-1.54c-0.28-0.14-0.42-0.28-0.98-0.28s-0.56,0.14-0.84,0.7
		c-0.14,0.56-0.28,0.98-0.28,1.54c-0.14,0.7-0.28,0.84-0.84,0.98c-0.56,0-0.42,0-0.84-0.28c-0.28-0.28-0.56-0.42-0.56-0.84
		c0-0.56-0.14-1.26-0.28-1.68c-0.28-0.28-0.56-0.42-0.98-0.56c-2.25,0-2.53,2.67-2.39,3.65c-0.14,0.14-0.28,4.91,2.81,6.17
		c4.21,1.96,12.07,1.12,11.79-5.61c0-0.56-0.14-2.67-0.14-3.23C114.54,153.19,113.7,152.77,113,152.91z M169.41,153.05
		c-1.4,0.14-2.67,0.42-3.79,1.12c-2.81,2.67-3.51,6.88-1.26,9.68c2.1,0.98,4.21,3.23,2.81,4.35c-6.03,6.45-21.75,17.26-22.59,19.22
		l0,0l0,0l0,0l0,0l0,0l0,0l0,0l0,0l0,0c0.84,0.56,10.66,0.56,11.79,0l0,0l0,0l0,0c3.37-1.26,19.36-19.64,19.36-19.64
		c-0.84-0.7-1.54-1.26-2.39-1.96c-0.84-0.7-0.84-1.54,0-2.25c3.93-2.24,2.67-7.44,0.7-9.68
		C172.35,153.19,170.81,152.91,169.41,153.05L169.41,153.05z M316.74,153.05c-0.42,0-0.98,0.7-1.68,2.39
		c-1.96,3.09-3.23,8.56-3.09,13.61c4.07,28.48,5.33,53.32,8,81.66c0.28,2.81-0.14,6.73-1.96,8.28
		c-6.73,7.02-16.56,15.71-27.08,19.78c-1.12,1.26,2.81,6.73,8,6.73c8.56-0.98,16.14-5.89,23.15-18.52
		c1.82-2.95,5.19-9.26,5.33-14.31c0.7-28.9-1.4-51.35-5.75-72.12c-0.28-1.96-0.14-4.49,0.28-5.05c0.56-0.7,2.39,0,3.51-1.68
		c1.4-1.54-3.93-13.89-7.02-18.8C317.72,154.03,317.3,153.05,316.74,153.05z M88.45,153.89c-1.12,0.14-2.25,1.12-2.81,2.39
		c-0.14,4.49-0.28,9.12,0.28,13.33c2.1,7.44,2.67,13.89,3.79,21.47c0.28,10.1-5.89,4.35-5.61-0.7c1.4-6.45,0.98-16.7-0.28-19.36
		c-0.98-2.67-2.1-3.23-4.63-2.81c-1.96-0.14-6.88,5.33-8.28,14.31c0,0-1.12,4.63-1.68,8.7c-0.7,4.63-3.79,7.86-5.89-0.7
		c-1.82-6.17-2.95-21.47-6.03-17.96c-0.84,11.93-1.96,32.97,8.14,35.08c12.21,1.12,5.47-20.77,9.96-24.69
		c0.84-1.96,2.39-1.96,2.53,0.42v18.66c-0.14,6.03,3.93,7.86,7.02,9.12c3.23-0.28,5.33-0.14,6.59,2.95
		c0.56,10.66,0.98,21.47,1.54,32.27c0,0,7.44,2.1,7.86-18.1c0.42-11.93-2.39-21.89-0.7-24.13c0-2.25,2.95-2.39,5.05-1.26
		c3.23,2.25,4.63,5.05,9.68,3.93c7.58-2.1,12.21-5.75,12.21-11.65c-0.42-5.47-1.12-11.08-3.51-16.56c0.28-0.98-1.4-3.65-1.12-4.63
		c1.4,2.1,3.37,1.96,3.93,0c-1.26-4.21-3.37-8.28-6.59-10.1c-2.67-2.39-6.59-1.82-8,3.09c-0.7,5.61,2.1,12.35,6.17,17.96
		c0.84,2.1,2.1,5.75,1.54,8.98c-2.25,1.26-4.35,0.7-6.17-1.26c0,0-6.03-4.49-6.03-5.47c1.54-10.24,0.28-11.37-0.56-14.31
		c-0.56-3.93-2.53-5.19-3.93-7.86c-1.54-1.54-3.51-1.54-4.49,0c-2.67,4.63-1.4,14.59,0.56,18.94c1.4,4.07,3.51,6.59,2.53,6.59
		c-0.84,2.24-2.53,1.82-3.79-0.84c-1.82-5.47-2.1-13.75-2.1-17.4c-0.56-4.63-1.12-14.45-4.21-16.84
		C90.27,154.17,89.29,153.89,88.45,153.89z M131.52,154.03c-0.56,0.14-1.26,0.42-2.1,0.56c-2.67,0.84-5.05,3.09-4.35,7.44
		c3.09,18.8,5.05,32.97,8.14,51.78c0.42,2.25-1.4,5.05-3.79,4.77c-4.07-2.67-5.05-8.28-11.93-8c-4.91,0-10.66,5.47-11.37,10.66
		c-0.84,4.21-1.12,8.7,0,12.21c3.51,4.21,7.72,3.79,11.37,2.81c3.09-1.26,5.47-4.21,6.59-3.51l0,0l0,0c0.7,1.12,0,10.94-14.31,18.38
		c-8.7,3.93-15.71,4.91-19.36-2.25c-2.25-4.49,0.14-21.33-5.47-17.54c-16.84,43.36,39.43,49.39,45.74,1.82
		c0.42-1.4,1.68-2.67,2.53-2.39c0.42,0.14,0.7,0.7,0.84,1.68c-1.26,43.22-43.5,46.16-50.65,32.55c-1.82-3.23-2.24-10.38-2.53-14.59
		c-0.28-2.53-0.98-4.07-1.68-4.63c-1.68-1.26-4.07,2.1-4.49,7.86c-0.56,3.79-0.56,5.33-0.56,8.14l14.73,11.23l3.23,10.66
		c17.4,2.39,41.81-10.1,47.43-28.2c4.35-14.59-0.14-25.54,1.4-26.94l0,0l0,0l0,0h0.14c5.33,5.75,12.91,0.7,14.59-1.26
		c0.7-0.98,2.53-1.68,3.79-0.42c4.21,3.09,11.65,1.54,13.19-3.79c0.84-5.19,1.68-10.52,1.82-16.14c-2.81,0.84-4.91,1.54-5.89,2.39
		c-0.28,0.28-0.42,0.42-0.42,0.7c-0.28,1.54-0.42,3.09-0.7,4.63c0,0.14,0,0.28-0.14,0.42s-0.28,0.42-0.56,0.42
		c-0.98,0.56-2.67,0.28-2.81-1.12c-1.26-5.89-6.74-6.74-9.96,2.53c-2.25,1.82-6.17,2.1-6.59-0.56c0.56-6.17-1.96-7.02-6.88-4.07
		c-1.54-12.21-3.23-23.85-4.77-36.06c2.1,0,3.93,1.4,5.89-0.98c-2.1-6.45-6.45-19.36-8.84-20.63l0,0c-0.14-0.14-0.28-0.28-0.42-0.42
		l-0.14-0.14l-0.14-0.14c-0.14,0-0.28-0.14-0.28-0.14C131.94,154.03,131.66,154.03,131.52,154.03z M299.48,154.03
		c-2.1,0-4.49,1.26-3.65,3.93c-0.56,1.4,4.63,6.45,5.47,9.26c1.54,4.21-1.12,8.14,0.42,8.84c1.4,0.7,3.37-4.35,4.21-8.98
		c0.84-3.79-1.82-11.37-5.61-12.91C300.04,154.17,299.76,154.17,299.48,154.03z M168.57,158.66c0.98-0.14,2.1,0.84,2.81,2.1
		c0.56,1.4,0.28,2.67-0.7,2.95c-0.98,0.28-2.39-0.7-2.95-1.96c-0.56-1.4-0.28-2.67,0.7-2.95L168.57,158.66z M277.17,168.35
		c0.14,0.84,0.42,1.54,0.42,2.39c0.42,1.82,0.7,3.51,1.12,5.33c-1.54-2.1-2.81-3.93-3.37-4.49
		C271.84,167.36,275.34,168.77,277.17,168.35z M308.04,183.5c-0.7,0.14-1.54,0.84-1.82,1.82c-0.14,0.7,0.28,1.82-0.28,2.1
		c-0.42,0.42-1.68,0.14-1.68-1.68c0-0.56-0.42-1.26-0.7-1.68c-0.28-0.14-0.42-0.28-0.98-0.28c-0.56,0-0.56,0.14-0.84,0.7
		c-0.14,0.56-0.28,0.98-0.28,1.54c-0.14,0.7-0.28,0.84-0.84,0.98c-0.56,0-0.42,0-0.84-0.28c-0.28-0.28-0.56-0.42-0.56-0.84
		c0-0.56-0.14-1.26-0.28-1.68c-0.28-0.28-0.56-0.42-0.98-0.56c-2.24,0-2.39,2.67-2.24,3.65c-0.14,0.14-0.28,4.91,2.81,6.17
		c4.21,1.96,12.07,1.12,11.79-5.61c0-0.56-0.14-2.67-0.28-3.23C309.58,183.78,308.74,183.36,308.04,183.5z M166.46,184.9
		c-0.42,0-0.98,0.28-1.54,0.56c-3.65,1.96-5.19,8-2.81,11.51c2.1,3.09,5.61,1.96,6.03,1.96c3.65,0.42,5.75-6.88,5.75-6.88
		s0.14-2.1-4.21,1.82c-1.82,0.28-2.1-0.28-2.53-1.4c-0.42-1.96-0.28-3.79,0.56-5.75c0.42-1.12,0-1.82-0.84-1.96
		C166.74,184.9,166.6,184.9,166.46,184.9z M361.78,189.25c0,0.14-0.14,0.42-0.14,0.7c0,1.68,0.7,2.53,0.56,4.07
		c-0.28,0.84-1.12,1.4-3.23,0.42c0.28-0.28-1.4-2.67-1.4-2.67c-1.68-0.98-3.93,0-5.33,0.98c-0.84,1.4-1.4,3.93-0.42,6.45
		c2.39,4.35,10.52,11.93,14.45,11.93c0.14-3.93,0.42-9.26,0.7-12.49c0-0.84,0.28-1.82,0.7-2.39L361.78,189.25z M201.26,199.63
		l-0.14,0.14h-0.14c-0.42,0.28-0.84,0.98-1.96,1.82c-1.82,2.1-2.1,3.51-2.1,7.72c0.14,0.42,3.51,9.82,6.31,16.42
		c1.96,6.88,3.65,14.73,2.39,22.03c-4.49,9.82-13.61,18.52-22.31,23.29c-4.49,1.4-8.28,0.98-9.26,0l0,0
		c-2.53-1.68-2.67-4.77-2.53-5.33l0,0l0,0c7.44-5.19,15.86-9.26,22.45-23.15c1.96-5.33,2.53-8.42,0.56-16.7
		c-0.7-3.09-1.68-5.61-3.79-7.72l0,0c1.26-0.56,4.49,1.82,5.05,0.28c-0.7-3.93-3.37-9.12-6.45-11.79c-2.67-2.39-5.47-2.67-7.86-0.42
		c-2.67,1.54-3.23,6.88-1.96,11.65c1.4,3.51,5.33,4.21,8.14,11.37l0,0c0,0.42,0.98,5.33-0.42,7.3
		c-1.12,3.51-15.71,15.01-16.84,15.71h-0.14l0,0l0,0l0,0l0,0l0,0l0,0l0,0l0,0c0-0.28,0-0.98,0-2.25c-0.14-2.1,0.84-7.02,0.7-7.86
		l0,0l0,0l0,0l0,0c-4.77,3.09-6.45,12.63-7.3,15.57c-12.21,8.42-26.1,14.73-34.1,23.29c-4.21,6.45,28.76-7.44,32.55-9.12l0.14,0.14
		c0.7,0.84,0.84,3.65,2.95,6.03c3.37,4.63,10.66,7.44,17.82,5.75c11.93-4.35,18.66-12.35,25.68-21.33c0.98-1.4,2.53-2.53,3.93-1.4
		c4.77,10.66,18.52,18.38,36.34,19.08c4.07-5.05,2.1-7.44,0.42-8.56c-0.56-0.28-8.84-3.65-10.1-6.88c-0.84-2.95,1.12-5.75,5.19-7.72
		c11.51-1.4,22.73-2.95,33.53-6.45c0.14-3.65,2.24-9.12,3.65-11.51c0.98-1.68,1.68-1.82,1.82-2.1l0,0l0,0l0,0l0,0
		c0-0.14,0-0.14,0-0.28l-1.82-1.12l-36.48-0.14c-0.42-0.14-0.84-0.28-0.98-0.56l0,0l0,0l0,0l0,0l0,0l0,0l0,0l0,0l0,0l0,0l0,0l0,0
		l0,0l0,0l0,0l0,0l0,0c0.14-0.28,0.56-0.42,1.12-0.7c8.7-1.12,24.13-3.79,25.26-18.66c-0.14-7.72-3.37-12.77-12.91-14.31
		c-7.02,0.56-11.93,7.3-11.22,14.73c-0.28,1.96,0.7,5.89-1.4,6.45c-13.47,1.26-28.06,9.68-28.48,15.71l0,0l0,0l0,0l0,0h-0.14l0,0
		l0,0l0,0l0,0h-0.14c-0.84-0.28-1.96-1.68-1.82-3.65c-0.56-10.38-3.93-22.17-9.26-31.29c-1.82-1.82-2.67-2.67-3.23-2.81l0,0h-0.7
		V199.63L201.26,199.63L201.26,199.63L201.26,199.63z M236.2,205.11c-0.7,0.14-1.54,0.7-1.82,1.82c-0.14,0.7,0.28,1.82-0.28,2.1
		c-0.42,0.42-1.68,0.14-1.68-1.68c0-0.56-0.42-1.26-0.7-1.68c-0.28-0.14-0.42-0.28-0.84-0.28c-0.56,0-0.56,0.14-0.98,0.7
		c-0.14,0.56-0.28,0.98-0.28,1.54c-0.14,0.7-0.28,0.84-0.84,0.98c-0.56,0-0.42,0-0.84-0.28c-0.28-0.28-0.56-0.42-0.56-0.84
		c0-0.56-0.14-1.26-0.28-1.68c-0.28-0.28-0.7-0.42-1.12-0.56c-2.25,0-2.39,2.67-2.25,3.65c-0.14,0.14-0.28,4.91,2.81,6.17
		c4.21,1.96,14.17,0.84,11.79-5.61c0-0.56-0.14-2.67-0.28-3.23C237.74,205.39,236.9,204.97,236.2,205.11z M254.58,212.96
		c0.84-0.14,1.82,0.14,2.81,0.7c1.4,0.84,2.39,2.1,2.24,3.09v0.14v0.14v0.14l0,0l0,0l-0.14,0.28c-0.7,0.7-2.24,0.56-3.79-0.28
		c-1.4-0.84-2.39-2.1-2.25-3.09v-0.14c0-0.14,0-0.28,0.14-0.28v-0.14l0,0l0.14-0.14C253.88,213.1,254.3,212.96,254.58,212.96
		L254.58,212.96z M373.14,213.53c-4.91,3.51-15.86,11.22-16.28,11.65c-1.96,1.68-0.98,7.72,0,7.02c0.98,0.42,12.35-7.02,17.82-11.37
		l-2.1-4.21L373.14,213.53z M83.96,216.47c-10.1,0.14-24.84,13.19-25.26,20.49c10.66-5.05,21.05-10.1,31.99-15.29
		C89.01,219,90.55,216.61,83.96,216.47z M116.79,220.96c0.98,0,1.96,0.56,2.53,1.82c0.56,1.26,0,2.67-0.56,3.23l0,0l0,0
		c-0.42,0.56-1.96,0.28-2.95,0.28c-1.26,0-1.96-0.28-2.67-1.26c-0.42-1.12,0.7-2.24,1.26-3.23l0,0l0.28-0.28
		c0.42-0.42,0.98-0.7,1.82-0.7C116.51,220.96,116.65,220.96,116.79,220.96z M373.42,225.03c-1.82,0.28-3.51,1.96-2.67,4.63
		c-0.56,1.54,2.39,7.16,3.23,10.1c0.7,2.1-0.84,8,0.56,8.7c1.26,0.7,4.77-3.51,4.63-8.84c0.42-2.67-0.98-12.77-4.35-14.45
		C374.26,225.03,373.84,225.03,373.42,225.03z M155.38,234.85c-1.54,0.14-2.95,0.98-2.39,3.23c-0.14,1.68,4.49,3.65,4.77,7.3
		c0.7,1.54-0.98,6.45,0.42,7.02c1.26,0.56,2.95-3.37,3.65-7.16c0.42-1.96-1.54-8.98-4.91-10.24
		C156.5,234.85,155.94,234.85,155.38,234.85z M383.52,238.36c0,0.7,0.14,1.54,0.14,2.24c-0.14,6.74-2.24,15.86-4.21,16.7
		c0,0-3.09,1.68-5.05-0.14c-1.4-0.56-7.3-9.82-7.3-9.82c-2.95-2.81-5.05-1.96-7.16,0c-5.89,5.75-8.56,16.42-12.63,23.71
		c-0.98,1.68-3.93,3.09-7.16-0.14c-8.28-11.23-3.37-27.22-4.49-23.15c-7.3,8.28-4.07,21.89-2.39,24.84
		c2.39,4.77,4.35,7.86,9.12,10.38c4.35,3.09,7.58,1.12,9.4-0.98c4.35-4.49,4.35-15.86,6.45-18.1c1.4-4.21,4.91-3.37,6.73-1.54
		c1.68,2.39,3.65,3.93,6.17,5.33c4.07,3.51,8.84,4.21,13.61,0.98c3.23-1.82,5.33-4.21,7.16-8.84c0.42-1.12,0.7-3.37,0.84-6.17
		l-1.68-0.7L383.52,238.36z M220.62,243.83c0.14,0,0.28,0,0.42,0l0,0c4.07,1.12,10.1,1.26,15.29,1.82c4.21,0.28,6.31,3.65,2.39,5.05
		c-3.93,1.4-7.72,2.39-7.72,8c0.56,2.81,0.42,4.21,0,4.91l-0.14,0.14l0,0l0,0l0,0l0,0l0,0l-0.14,0.14h-0.14
		c-0.98,0.14-2.24-0.7-3.23-1.26c-2.39-1.68-9.26-5.89-10.1-15.01C216.69,245.66,218.24,243.97,220.62,243.83z M61.23,250.71
		c-0.14,0-0.42,0.28-0.7,0.7l0.84,0.7C61.51,251.13,61.51,250.71,61.23,250.71z M402.89,258c0,1.96,0,3.79-0.14,5.75
		c-0.14,1.12,1.4,0,3.23-2.1L402.89,258z M265.8,263.2c-0.42,0-0.98,0-1.4,0.28c-0.14,0-4.35,2.81-5.61,4.77
		c-0.84,0.56-0.7,1.12-0.42,2.25c0.7,1.54,1.82,0.98,3.09,0.28c1.68-0.28,2.53,0.84,2.39,2.95c-0.84,2.53,0.42,3.51,0.42,3.65
		s1.68,1.54,3.51,0.42c4.07-1.54,6.59-3.09,12.35-4.35c1.54,0,1.4-4.07-0.98-4.21c-3.09,0.14-5.89,0.28-8.98,2.81
		c-1.96,0.42-2.24-0.7-2.67-1.82c-0.42-2.53,1.12-4.35,0.7-6.31C268.19,264.32,267.2,263.34,265.8,263.2z M396.85,268.11
		c-0.7,0-1.54,0.14-2.67,0.28c-1.26,0.28-1.68,0.84-1.96,2.39c0.14,2.24,1.54,2.24,2.95,3.09c0.84,1.12,1.4,1.96,0,3.79
		c-1.4,1.26-2.39,1.96-3.65,3.23c-0.7,1.12-0.98,2.81,0.98,3.37c3.65,0.98,12.07-4.49,12.07-4.63c1.4-0.98,0.98-2.95,0.84-2.95
		c-0.84-0.84-2.53-0.42-3.79-0.56c-0.56,0-2.53-0.28-1.54-1.96c0.7-0.98,0.98-1.68,1.54-2.95c0.56-1.26,0-2.1-1.96-2.81
		C398.26,268.25,397.56,268.11,396.85,268.11z M416.5,274c-3.09,1.68-7.58,3.37-9.26,4.63c-6.17,3.51-6.17,7.72-1.26,7.86
		c5.61-0.7,11.79-1.26,17.4-4.35L416.5,274z M342.13,378.95L342.13,378.95c-6.03,1.54-5.89,7.86-1.96,10.66
		c-63.98,0-162.2-1.12-183.25-1.12c-3.51,0-9.54-0.14-16-0.28l2.67,2.67l2.53,10.52c32.13,0,156.73-0.42,193.35-0.42
		c-2.67,4.77,0.28,12.35,2.39,13.75l0.14,0.14l0.28,0.14h0.14c2.53,0.56,3.51-1.26,4.35-2.53c1.4,0.14,5.33,0.28,9.68,0.28
		l32.83-5.19c0.14-0.7,0.14-1.54,0.14-2.53c0,0-0.42-16.14-11.08-15.15c-2.53,0.42-9.54,1.12-9.54,1.12
		c-8.14-0.98-14.17-1.12-23.29-1.4c0.84-1.12,2.39-5.47,0.56-7.02c-0.42-0.42-1.12-0.56-2.1-0.56l0,0l0,0l0,0h-0.14l-0.14-0.14l0,0
		c-0.42-0.7-0.7-2.39-0.98-2.81l0,0L342.13,378.95L342.13,378.95L342.13,378.95L342.13,378.95L342.13,378.95z M346.48,401.97
		L346.48,401.97c9.4,0.42,18.1,0.14,27.5,0.56c1.54,1.26,0.7,4.07-0.28,4.63h-0.14h-0.14h-0.14c-3.09-0.14-4.77-0.14-7.86-0.28
		c0-0.14,0-0.28,0-0.42c-0.7-2.1-5.89-1.96-7.16-0.28v0.14v0.14v0.14v0.28v0.28c-4.07,0.56-7.72-0.14-11.93-0.28
		C344.94,405.33,345.08,402.67,346.48,401.97L346.48,401.97z"/>
</g>
</svg>
